# xmcd
#
# Track frame offsets:
#	150
#	8967
#	26928
#	44794
#	62704
#	79296
#	96900
#	114032
#	135696
#	149806
#	169597
#	184707
#	204445
#	228451
#
# Disc length: 3246 seconds
#
# Revision: 0
# Processed by: cddbd v1.5.2PL0 Copyright (c) Steve Scherf et al.
# Submitted via: dBpowerAMP V4.0
#
DISCID=c90cac0e
DTITLE=Clemens  -  Nye Tider
DYEAR=2007
DGENRE=Hip-Hop
TTITLE0=Tiden Flyver
TTITLE1=Længe Siden
TTITLE2=80´er Fly
TTITLE3=Skolegårdens Værste
TTITLE4=La´ Dem Hænge
TTITLE5=Kejserens Nye Klæ´r
TTITLE6=Uden Dig
TTITLE7=Når Samvittigheden Taler
TTITLE8=Hr. Betjent Part II
TTITLE9=Vor Tid
TTITLE10=Hvis Jeg Bli´r Gammel
TTITLE11=Metropolis
TTITLE12=Jaget Vildt
TTITLE13=Roborock
EXTD=Dope
EXTT0=
EXTT1=
EXTT2=
EXTT3=
EXTT4=
EXTT5=
EXTT6=
EXTT7=
EXTT8=
EXTT9=
EXTT10=
EXTT11=
EXTT12=
EXTT13=
PLAYORDER=
